<?xml version="1.0" encoding="UTF-8" standalone="no"?>
<!-- Created with Inkscape (http://www.inkscape.org/) -->
<svg id="svg3008" xmlns:inkscape="http://www.inkscape.org/namespaces/inkscape" xmlns:rdf="http://www.w3.org/1999/02/22-rdf-syntax-ns#" xmlns="http://www.w3.org/2000/svg" sodipodi:docname="BBC_bangla.JPG" height="117.5" width="154" version="1.1" xmlns:cc="http://creativecommons.org/ns#" xmlns:dc="http://purl.org/dc/elements/1.1/" inkscape:version="0.48.4 r9939" xmlns:sodipodi="http://sodipodi.sourceforge.net/DTD/sodipodi-0.dtd">
 <metadata id="metadata3014">
  <rdf:RDF>
   <cc:Work rdf:about="">
    <dc:format>image/svg+xml</dc:format>
    <dc:type rdf:resource="http://purl.org/dc/dcmitype/StillImage"/>
    <dc:title/>
   </cc:Work>
  </rdf:RDF>
 </metadata>
 <sodipodi:namedview id="namedview3010" bordercolor="#666666" inkscape:pageshadow="2" guidetolerance="10" pagecolor="#ffffff" gridtolerance="10" inkscape:window-maximized="1" inkscape:zoom="1" objecttolerance="10" borderopacity="1" inkscape:current-layer="svg3008" inkscape:cx="591" inkscape:cy="203" inkscape:window-y="-8" inkscape:window-x="-8" inkscape:window-width="1600" showgrid="false" inkscape:pageopacity="0" inkscape:window-height="838"/>
 <path id="path3018" inkscape:connector-curvature="0" fill="#8e0000" d="m0.13291,59.524,0-57.976,77.28,0,77.28,0,0,57.976,0,57.976-77.28,0-77.28,0,0-57.976zm81.487,28.064c0.14522-0.21872,0.10332-0.4536-0.29053-1.6287-1.554-4.6364-4.391-8.722-8.1017-11.667-1.7022-1.351-3.9916-2.7734-3.9916-2.48,0,0.14922,2.0541,5.9859,2.1956,6.2387,0.0554,0.099,0.65884,0.57318,1.341,1.0537,3.2865,2.3153,5.7092,4.7452,7.7272,7.7502,0.39104,0.5823,0.76484,1.0429,0.83066,1.0236s0.19604-0.15011,0.28937-0.29068zm-27.041-13.531v-12.426l1.9877-0.0393c1.0932-0.0216,2.2711-0.0189,2.6174,0.006l0.62975,0.0453v11.57,11.57l1.1451,0.84578c0.62982,0.46518,1.1893,0.84754,1.2433,0.84969,0.05398,0.002,0.09815-5.5909,0.09815-12.429v-12.433h2.7483c2.1136,0,2.7473-0.0378,2.7442-0.16359-0.0022-0.09-0.22312-0.57584-0.49077-1.0797l-0.48663-0.9161-15.41-0.0333c-8.4756-0.0183-15.41-0.002-15.41,0.036,0,0.16316,0.96276,1.9691,1.0964,2.0565,0.0808,0.0529,3.489,0.097,7.5739,0.0981l7.427,0.002v0.92278c0,1.0723,0.26826,0.87212-2.5245,1.8839-2.29,0.82964-4.6533,1.9162-6.834,3.142-2.2349,1.2563-4.9065,3.0414-4.9065,3.2785,0,0.0958,0.41404,0.79671,0.92008,1.5576,0.70244,1.0561,1.0043,1.4022,1.276,1.4628,2.0185,0.45033,4.5331,1.4438,6.2541,2.4708,3.812,2.2748,6.6649,5.7603,6.9459,8.4858,0.06096,0.59133,0.14107,0.74387,0.61463,1.1704,0.2995,0.26973,0.58872,0.49058,0.6427,0.49077,0.05398,0.00013,0.09816-5.5915,0.09816-12.426zm-3.2634,4.5612c-0.984-1.338-3.384-3.682-4.788-4.674-0.643-0.455-1.877-1.182-2.743-1.615s-1.594-0.807-1.618-0.831c-0.187-0.185,5.618-3.175,8.158-4.202l1.7013-0.68758,0.035,3.1884c0.01922,1.7536,0.01922,4.6738,0,6.4893l-0.035,3.3009-0.71145-0.96878zm54.958-4.5558,0-12.421,1.9902-0.0447c1.0946-0.0246,2.2427-0.0241,2.5513,0.001l0.56106,0.0458,0.0334,11.534,0.0334,11.534,1.1603,0.88618c0.63819,0.4874,1.2124,0.88618,1.276,0.88618,0.0661-0.00006,0.11566-5.3219,0.11566-12.433v-12.433h2.7483c1.5116,0,2.7473-0.0442,2.7462-0.0982-0.001-0.054-0.22201-0.53985-0.49076-1.0797l-0.48865-0.98154-18.42-0.0332c-12.554-0.0226-18.42,0.01-18.42,0.10142,0,0.074,0.20299,0.53768,0.45109,1.0303,0.31013,0.61584,0.54529,0.92098,0.75251,0.97649,0.16578,0.0444,4.9392,0.0815,10.608,0.0825l10.306,0.002v2.8967,2.8967l-1.2106-1.2464c-1.2206-1.2567-1.7908-1.6452-2.8221-1.9229-1.2721-0.34254-2.9122,0.65029-3.2873,1.99l-0.17186,0.61381-0.75741-0.68356c-1.6455-1.485-3.108-2.1068-4.9689-2.1126-1.4129-0.004-1.9817,0.14991-2.982,0.80878-1.1505,0.75782-2.229,2.5593-2.647,4.4215-0.19426,0.86541-0.18897,2.5871,0.01043,3.3967,0.41919,1.702,1.8444,3.4891,3.46,4.3387,1.7956,0.94423,4.2559,1.3384,5.7121,0.91503,1.4315-0.41614,2.3354-1.695,2.3507-3.3259,0.01009-1.0797-0.23373-1.7346-0.90467-2.4297-1.3788-1.4286-3.4828-1.4912-4.9766-0.14821-0.85447,0.76824-1.1335,1.5712-1.0268,2.9546,0.0438,0.56796,0.05139,1.0326,0.01686,1.0326s-0.31748-0.11973-0.6288-0.26607c-0.69384-0.32614-1.594-1.1962-1.9423-1.8773-1.0311-2.0164,0.39529-5.3794,2.7421-6.465,1.038-0.48014,2.5513-0.50083,3.472-0.0475,1.0181,0.50133,1.9969,1.392,3.1003,2.8213,1.3559,1.7565,1.4411,1.8256,1.444,1.1718,0.003-0.69834,0.32449-2.1531,0.62442-2.8267,0.3482-0.78199,0.93038-1.3562,1.5691-1.5476,0.46562-0.1395,0.62884-0.13055,1.1335,0.0622,0.85063,0.32486,1.8203,1.2543,2.2907,2.1956l0.40016,0.80079v7.3646,7.3646l0.55621,0.4458c0.72067,0.57762,1.707,1.2598,1.8322,1.2672,0.054,0.003,0.0982-5.5835,0.0982-12.415zm-29.021-4.232c2.0555-0.94419,3.3522-3.1488,3.2075-5.4529-0.18475-2.9412-2.7837-5.1352-5.8711-4.9565-1.6393,0.0949-3.21,1.0343-4.1081,2.4569-0.97405,1.543-1.128,3.6671-0.37958,5.2368,0.69123,1.4497,1.9326,2.4746,3.5847,2.9595,0.96791,0.28409,2.6708,0.16767,3.5666-0.24384zm-4.3518-1.9576c-1.6204-0.85714-1.4997-3.1971,0.25551-4.9522,1.8192-1.8192,4.0947-1.8587,4.9987-0.0868,0.96316,1.8879-1.3611,5.0222-3.9123,5.2757-0.6318,0.0628-0.8478,0.0246-1.3419-0.23671zm-9.5536-24.969,0-10.208-10.862,0-10.862,0,0,10.208,0,10.208,10.862,0,10.862,0,0-10.208zm-15.966-0.0122,0-7.3411,3.0428,0.0525c3.6279,0.0625,4.1288,0.19035,5.2876,1.3491,1.483,1.483,1.4433,3.6136-0.09195,4.936l-0.62207,0.53585,0.73962,0.3506c1.0052,0.47649,1.541,0.95675,1.9352,1.7348,0.93394,1.8431,0.23834,3.9612-1.6359,4.9812-1.1129,0.60573-2.0994,0.73731-5.5471,0.73983l-3.1082,0.002v-7.3411zm6.3525,4.9131c1.5816-0.41196,2.208-1.7594,1.367-2.9405-0.46958-0.65946-1.4345-0.91336-3.4711-0.91336h-1.7619v2.0285,2.0285h1.543c0.97246,0,1.8314-0.0751,2.323-0.20317zm-0.97-6.338c0.98583-0.28315,1.5683-1.3321,1.2978-2.337-0.07446-0.27649-0.24782-0.60448-0.38529-0.72888-0.41049-0.37149-1.4219-0.60061-2.6512-0.60061h-1.157v1.8867c0,1.3822,0.04375,1.9068,0.16359,1.9617,0.23537,0.10788,2.1721-0.0211,2.7321-0.18197zm35.581,1.4368,0-10.209-10.895,0.0335-10.895,0.0335-0.03384,10.012c-0.01858,5.5064-0.0058,10.085,0.02862,10.175,0.04926,0.12906,2.3563,0.16359,10.929,0.16359h10.866v-10.209zm-16.097,0.00086,0-7.3288,2.7156,0.002c3.5263,0.003,4.468,0.20413,5.6014,1.1993,0.75238,0.66059,1.1467,1.5748,1.147,2.6595,0.000263,1.1235-0.3092,1.8019-1.1383,2.495l-0.57592,0.4814,0.89501,0.44776c0.94237,0.47145,1.3933,0.90746,1.8571,1.7955,0.39976,0.7655,0.39625,2.2816-0.0071,3.0544-0.46022,0.88179-1.039,1.4468-1.9057,1.8605-1.1465,0.54718-2.0953,0.66034-5.5463,0.66146l-3.0428,0.00086v-7.3288zm6.904,4.785c1.6204-0.67921,1.7419-2.6056,0.21176-3.3588-0.56812-0.27966-0.84785-0.31872-2.5679-0.35857l-1.9304-0.0447v2.0551,2.0551l1.8649-0.0574c1.3921-0.0428,2.0061-0.11652,2.4216-0.2907zm-1.4319-6.2327c0.32909-0.0986,0.72014-0.34966,0.94693-0.60796,0.32245-0.36725,0.38625-0.55287,0.38584-1.1225-0.000862-1.4241-0.79128-1.9258-3.0333-1.9258h-1.1541v1.8867c0,1.3823,0.04373,1.9067,0.16359,1.9614,0.26389,0.12038,2.0815-0.009,2.691-0.1918zm35.491,1.4477,0-10.208-10.862,0-10.862,0,0,10.208,0,10.208,10.862,0,10.862,0,0-10.208zm-12.515,7.2084c-3.3267-0.89939-5.5944-3.4836-5.7761-6.5823-0.1337-2.2809,0.54857-4.1119,2.1152-5.6766,2.5034-2.5003,6.2616-3.0864,10.552-1.6457l1.1084,0.37214,0.0373,1.3298c0.0205,0.73139,0.004,1.3298-0.036,1.3298-0.0403,0-0.46933-0.19932-0.9534-0.44293-3.2384-1.6298-6.5516-1.4552-8.5911,0.45267-1.1995,1.1221-1.5825,2.0105-1.5758,3.6547,0.0039,0.97622,0.06878,1.4036,0.30149,1.9895,1.0283,2.5889,4.3509,3.8324,7.8074,2.922,0.64579-0.1701,1.3499-0.47611,3.1082-1.3509,0.054-0.0269,0.0982,0.544,0.0982,1.2686v1.3174l-0.64276,0.32571c-1.2927,0.65507-2.4094,0.88306-4.5921,0.93758-1.703,0.0426-2.1782,0.0102-2.9613-0.2015z"/>
</svg>
