<svg id="_03_business-insider" data-name="03_business-insider" xmlns="http://www.w3.org/2000/svg" width="118.101" height="36.663" viewBox="0 0 118.101 36.663">
  <g id="Group_4" data-name="Group 4" transform="translate(0 0)">
    <path id="Path_28" data-name="Path 28" d="M121.442,126.951c0-.768,0-1.536,0-2.3q0-6.027,0-12.054V112.3c.093,0,.167-.012.241-.012q2.687,0,5.375,0a7.791,7.791,0,0,1,3.652.816,6.111,6.111,0,0,1,3.106,3.691,8.664,8.664,0,0,1-.261,6.3,6.205,6.205,0,0,1-4.64,3.661c-.4.086-.8.128-1.2.19Zm2.513-2.191c1.3-.024,2.586.032,3.851-.089a4,4,0,0,0,3.664-2.994,7.194,7.194,0,0,0,.19-3.326,4.72,4.72,0,0,0-1.026-2.38,4.171,4.171,0,0,0-3.145-1.46c-1.12-.048-2.244-.02-3.366-.024a1.408,1.408,0,0,0-.168.019Z" transform="translate(-57.37 -90.287)" fill="#717171"/>
    <path id="Path_29" data-name="Path 29" d="M179.105,126.95c.006-.107.018-.213.018-.32q0-7.007,0-14.014v-.31c.087-.006.153-.015.22-.015q2.5,0,5.006,0a6.107,6.107,0,0,1,2.43.45,3.805,3.805,0,0,1,2.378,3.251,6.111,6.111,0,0,1-.1,2.107,3.432,3.432,0,0,1-2.923,2.76l-.257.056c.1.123.191.227.28.329l4.685,5.488c.059.07.113.144.17.216H188.24a2.122,2.122,0,0,0-.127-.187c-1.52-1.812-3.045-3.621-4.557-5.441a.744.744,0,0,0-.691-.329c-.432.031-.869.008-1.316.008v5.949Zm2.45-8c1.129-.025,2.246.009,3.349-.091a2.009,2.009,0,0,0,1.886-1.959,2.084,2.084,0,0,0-1.414-2.292,2.966,2.966,0,0,0-.856-.156c-.944-.022-1.889-.014-2.834-.016a.8.8,0,0,0-.132.022Z" transform="translate(-81.166 -90.287)" fill="#717171"/>
    <path id="Path_30" data-name="Path 30" d="M151.059,126.961c0-.1.008-.2.008-.3q0-7.019,0-14.036v-.309h9.14v2.171H153.6v3.528h5.924v2.171H153.59v4.553h6.651v2.221Z" transform="translate(-69.592 -90.298)" fill="#717171"/>
    <path id="Path_31" data-name="Path 31" d="M206.388,86.547c-.039.2-.07.405-.12.6a3.947,3.947,0,0,1-2.7,2.847,7.964,7.964,0,0,1-4.32.213,7.446,7.446,0,0,1-2.584-1,.358.358,0,0,1-.2-.348c.01-.8,0-1.6,0-2.433.077.052.133.084.183.123a7.249,7.249,0,0,0,4.151,1.588,4.531,4.531,0,0,0,2.035-.292,1.822,1.822,0,0,0,.3-3.224,10.36,10.36,0,0,0-1.367-.655c-.966-.394-1.951-.741-2.91-1.152a4.972,4.972,0,0,1-1.089-.682,4.062,4.062,0,0,1,1.435-6.96,7.557,7.557,0,0,1,6.252.8.324.324,0,0,1,.15.224c.01.791.005,1.582,0,2.374a.413.413,0,0,1-.025.086l-.4-.283A6.348,6.348,0,0,0,200.87,77.1a2.769,2.769,0,0,0-1.465.493,1.67,1.67,0,0,0-.09,2.575,4.053,4.053,0,0,0,1.038.581c1.1.446,2.232.826,3.322,1.3a6.092,6.092,0,0,1,1.444.929,3.588,3.588,0,0,1,1.226,2.477,1.16,1.16,0,0,0,.043.174Z" transform="translate(-88.287 -74.826)" fill="#717171"/>
    <path id="Path_32" data-name="Path 32" d="M80.4,126.952c-.507-.077-1.019-.135-1.522-.236a7.482,7.482,0,0,1-2.3-.865.4.4,0,0,1-.233-.4c.013-.736.005-1.472.005-2.261.1.07.166.115.23.16a7.484,7.484,0,0,0,4.66,1.469,4.043,4.043,0,0,0,1.76-.4,1.65,1.65,0,0,0,.187-2.811,9.24,9.24,0,0,0-1.47-.7c-.964-.376-1.958-.681-2.911-1.084a6.052,6.052,0,0,1-1.381-.859,3.683,3.683,0,0,1,.84-6.035,6.569,6.569,0,0,1,3.105-.64,8.339,8.339,0,0,1,3.933,1.008.382.382,0,0,1,.228.4c-.013.645,0,1.291,0,1.936v.271l-.368-.252a6.7,6.7,0,0,0-4.344-1.244,2.965,2.965,0,0,0-1.523.469,1.51,1.51,0,0,0-.078,2.433,4.261,4.261,0,0,0,1.054.551c1.1.42,2.233.779,3.327,1.222a5.679,5.679,0,0,1,1.394.837,3.869,3.869,0,0,1-1.4,6.6,13.811,13.811,0,0,1-1.747.389l-.2.043Z" transform="translate(-38.708 -90.288)" fill="#717171"/>
    <path id="Path_33" data-name="Path 33" d="M27.879,126.961c.007-.106.021-.213.021-.32q0-7.007,0-14.015v-.31h2.747v14.644Z" transform="translate(-18.757 -90.298)" fill="#717171"/>
    <path id="Path_34" data-name="Path 34" d="M104.317,126.961V112.318h2.72c0,.073.014.147.014.22q0,7.12,0,14.24c0,.061-.008.122-.011.183Z" transform="translate(-50.302 -90.298)" fill="#717171"/>
    <path id="Path_35" data-name="Path 35" d="M12.348,75.306c.055-.006.1-.015.143-.015,1.86,0,3.721-.009,5.581.025a5.147,5.147,0,0,1,2.673.759A3.567,3.567,0,0,1,22.431,79.1a3.753,3.753,0,0,1-.778,2.656,2.725,2.725,0,0,1-1.065.8,8.448,8.448,0,0,1,.9.547A3.564,3.564,0,0,1,22.9,85.927a3.936,3.936,0,0,1-1.467,3.439,4.729,4.729,0,0,1-2.4.917,11.35,11.35,0,0,1-1.287.071c-1.7.008-3.4,0-5.1,0h-.3ZM14.755,88.15c1.125,0,2.224,0,3.322,0a3.135,3.135,0,0,0,.64-.075,1.976,1.976,0,0,0,1.666-1.438,2.177,2.177,0,0,0-.534-2.279,2.42,2.42,0,0,0-1.7-.611c-1.077-.019-2.153-.009-3.23-.011a1.64,1.64,0,0,0-.168.017Zm0-10.637v4.1c1.041,0,2.063.013,3.083-.008a3.426,3.426,0,0,0,.924-.173,1.671,1.671,0,0,0,1.2-1.2,2.637,2.637,0,0,0,.007-1.367,1.452,1.452,0,0,0-.863-1.045,3.655,3.655,0,0,0-1.151-.289c-1.013-.047-2.028-.031-3.042-.038A1.009,1.009,0,0,0,14.76,77.513Z" transform="translate(-12.348 -75.018)" fill="#717171"/>
    <path id="Path_36" data-name="Path 36" d="M123.565,75.111h2.38v15.3l-9.963-10.036-.092.055v9.731h-2.374V74.894l10.048,9.836Z" transform="translate(-54.099 -74.854)" fill="#717171"/>
    <path id="Path_37" data-name="Path 37" d="M57.881,126.947,47.547,117.5v9.227H45.106V112.335l10.337,9.285v-9.072h2.437Z" transform="translate(-25.867 -90.305)" fill="#717171"/>
    <path id="Path_38" data-name="Path 38" d="M48.7,75.313h2.482v.26q0,4.356,0,8.713a8.052,8.052,0,0,1-.5,2.981,4.918,4.918,0,0,1-3.378,3.075,7.14,7.14,0,0,1-3.894.031A5,5,0,0,1,39.668,86.4a8.891,8.891,0,0,1-.229-1.938c-.024-2.981-.011-5.962-.011-8.943,0-.067.007-.134.011-.21h2.471V75.6q0,4.23,0,8.459a6.58,6.58,0,0,0,.332,2.267,2.829,2.829,0,0,0,2.715,1.988,5.491,5.491,0,0,0,1.415-.118,2.817,2.817,0,0,0,2.1-2.2,7.308,7.308,0,0,0,.231-1.984q0-4.207,0-8.413Z" transform="translate(-23.522 -75.027)" fill="#717171"/>
    <path id="Path_39" data-name="Path 39" d="M148.479,83.416v4.673h6.413v2.272h-8.844V75.319H154.9v2.233h-6.411v3.626h5.748v2.238Z" transform="translate(-67.524 -75.029)" fill="#717171"/>
    <path id="Path_40" data-name="Path 40" d="M170.9,86.416a7.556,7.556,0,0,0,3.025,1.539,5.889,5.889,0,0,0,2.986.022,1.828,1.828,0,0,0,1.42-1.276,1.768,1.768,0,0,0-.843-2.118,17.2,17.2,0,0,0-1.783-.8c-.933-.392-1.909-.7-2.8-1.173a4.083,4.083,0,0,1-1.681-5.532,4.026,4.026,0,0,1,2.7-2,7.714,7.714,0,0,1,5.93.862.326.326,0,0,1,.189.326c-.01.722,0,1.444,0,2.166,0,.066-.005.132-.01.228-.234-.164-.443-.315-.657-.459a6.248,6.248,0,0,0-4.1-1.109,2.89,2.89,0,0,0-1.33.41,1.672,1.672,0,0,0-.144,2.715,4.089,4.089,0,0,0,.967.523c1.1.442,2.227.837,3.324,1.3a5.517,5.517,0,0,1,1.237.747,3.976,3.976,0,0,1,1.463,3.644,3.85,3.85,0,0,1-3.006,3.627,8.242,8.242,0,0,1-6.644-.816.428.428,0,0,1-.246-.437c.015-.707.005-1.413.005-2.12Z" transform="translate(-77.714 -74.831)" fill="#717171"/>
    <path id="Path_41" data-name="Path 41" d="M69.324,86.442c.169.125.3.221.424.313a7.128,7.128,0,0,0,4.442,1.41,3.926,3.926,0,0,0,1.526-.309,1.689,1.689,0,0,0,1.094-1.424,1.669,1.669,0,0,0-.8-1.763,18.065,18.065,0,0,0-1.921-.876c-.8-.334-1.628-.6-2.41-.974a5.365,5.365,0,0,1-1.308-.887A4.069,4.069,0,0,1,72.37,75.1a7.687,7.687,0,0,1,5.929.876.31.31,0,0,1,.175.312c-.008.73,0,1.46,0,2.19v.214c-.085-.056-.142-.089-.193-.129a6.856,6.856,0,0,0-3.053-1.384,5.087,5.087,0,0,0-2.24.074,1.712,1.712,0,0,0-1.3,2.227,1.566,1.566,0,0,0,.873.991c.547.258,1.116.47,1.677.7.889.36,1.811.654,2.662,1.087a4.29,4.29,0,0,1,1.76,6.026,4.215,4.215,0,0,1-2.713,1.884,8.429,8.429,0,0,1-6.364-.887.462.462,0,0,1-.268-.473c.019-.691.007-1.383.007-2.074Z" transform="translate(-35.809 -74.836)" fill="#717171"/>
    <path id="Path_42" data-name="Path 42" d="M97.2,75.313h2.456V90.352H97.2Z" transform="translate(-47.365 -75.027)" fill="#717171"/>
  </g>
</svg>
