<svg width="242" height="26" viewBox="0 0 242 26" fill="none" xmlns="http://www.w3.org/2000/svg">
<g clip-path="url(#clip0_979_357605)">
<path d="M0.622559 21.1226H1.58792C1.82103 21.0707 2.0338 20.9516 2.19994 20.78C2.36608 20.6084 2.4783 20.3919 2.52274 20.1573V7.076C2.47894 6.84427 2.36631 6.63112 2.19955 6.46437C2.0328 6.29761 1.81965 6.18498 1.58792 6.14118H0.622559V1.86426H10.3312V25.2346H0.622559V21.1226ZM11.3332 25.2346V20.9271H11.4371C14.7059 20.9271 16.4105 18.6604 16.4105 13.6808C16.4105 8.70123 14.7731 6.44057 11.4371 6.44057H11.3332V1.87037H11.5348C20.382 1.87037 24.4145 5.5363 24.4145 13.3814C24.4145 21.2265 20.2781 25.2346 11.3332 25.2346Z" fill="#ABABAB"/>
<path d="M34.123 21.1226H36.0598V25.2346H25.1781V21.1226H26.0152C26.2142 21.0734 26.3951 20.9685 26.5368 20.8203C26.6786 20.6721 26.7752 20.4866 26.8156 20.2856V6.94158C26.7792 6.74269 26.6831 6.55959 26.5401 6.41662C26.3971 6.27364 26.214 6.17758 26.0152 6.14118H25.062V1.86426H33.0049C33.6709 1.86426 34.0741 2.43248 34.0741 3.33063L34.123 21.1226ZM37.5934 14.2796C37.5934 12.9782 36.9824 12.7154 35.4549 12.7154H35.125V9.04949C36.6067 7.85271 38.4566 7.20512 40.3612 7.21653C42.7013 7.21653 44.9008 8.18189 44.9008 11.4201V20.2856C44.9353 20.4891 45.03 20.6777 45.1726 20.8269C45.3153 20.9761 45.4994 21.0791 45.7012 21.1226H46.2389V25.2346H37.5934V14.2796Z" fill="#ABABAB"/>
<path d="M56.1798 21.3245L56.7908 24.2939C55.5825 25.1247 54.138 25.5426 52.6727 25.4853C49.74 25.4853 47.1738 23.8479 47.1738 20.4447C47.1738 16.6016 49.8805 14.9458 54.0169 14.9458C54.7534 14.9427 55.4896 14.9774 56.2226 15.0496V18.1046C56.0897 18.0793 55.9545 18.069 55.8193 18.074C54.6523 18.074 54.0169 18.5078 54.0169 19.8031C54.0169 21.0984 54.7196 21.41 55.6177 21.41C55.8077 21.4032 55.9963 21.3745 56.1798 21.3245ZM57.249 14.0843C57.249 12.8623 56.577 12.2819 54.8784 12.2819C53.618 12.236 52.3876 12.6731 51.4385 13.5038H48.3836V8.51205C51.0423 7.64222 53.8291 7.22905 56.6258 7.29007C62.1675 7.29007 64.5687 9.12304 64.5687 13.2656V20.2858C64.6028 20.4925 64.6996 20.6837 64.8461 20.8335C64.9925 20.9832 65.1815 21.0843 65.3874 21.1229H65.9557V24.5994C64.6627 25.249 63.229 25.5681 61.7826 25.5281C59.5158 25.5281 57.2796 24.7949 57.2796 21.0251L57.249 14.0843Z" fill="#ABABAB"/>
<path d="M75.7743 21.1226H77.2407V25.2346H66.8538V21.1226H67.6848C67.8916 21.0818 68.0815 20.9804 68.2306 20.8314C68.3796 20.6824 68.481 20.4924 68.5218 20.2856V6.97824C68.4802 6.77179 68.3786 6.58222 68.2297 6.4333C68.0808 6.28439 67.8912 6.18277 67.6848 6.14118H66.7866V1.86426H74.7295C75.3405 1.86426 75.7682 2.43248 75.7682 3.33063L75.7743 21.1226ZM76.8069 14.2185L78.1449 13.1126C78.9759 12.416 78.7559 11.8112 77.9738 11.8112H77.3629V7.60756H87.5114V11.9822H87.1081C86.7107 12.0166 86.3353 12.1796 86.0389 12.4466L82.5379 15.251L86.2039 20.255C86.5033 20.6583 86.8149 21.1226 87.2059 21.1226H87.6091V25.2346H78.8292V21.2082L76.8618 18.8009L76.8069 14.2185Z" fill="#ABABAB"/>
<path d="M97.5192 21.3245L98.1302 24.2939C96.9214 25.1239 95.4772 25.5417 94.0121 25.4853C91.0793 25.4853 88.5132 23.8479 88.5132 20.4447C88.5132 16.6016 91.2199 14.9458 95.3563 14.9458C96.0928 14.9429 96.829 14.9775 97.5619 15.0496V18.1046C97.4291 18.0793 97.2938 18.069 97.1587 18.074C95.9917 18.074 95.3563 18.5078 95.3563 19.8031C95.3563 21.0984 96.0589 21.41 96.9571 21.41C97.1471 21.4029 97.3356 21.3742 97.5192 21.3245ZM98.5884 14.0843C98.5884 12.8623 97.9163 12.2819 96.2178 12.2819C94.9573 12.236 93.7269 12.6731 92.7779 13.5038H89.7229V8.51205C92.3816 7.64222 95.1685 7.22905 97.9652 7.29007C103.507 7.29007 105.908 9.12304 105.908 13.2656V20.2858C105.941 20.49 106.035 20.6794 106.178 20.8289C106.321 20.9784 106.506 21.0809 106.708 21.1229H107.277V24.5994C105.984 25.249 104.55 25.5681 103.104 25.5281C100.837 25.5281 98.6006 24.7949 98.6006 21.0251L98.5884 14.0843Z" fill="#ABABAB"/>
<path d="M114.432 6.34256H113.497L113.002 10.6195H108.358V1.87012H114.432V6.34256ZM123.309 1.87012V20.157C123.354 20.3917 123.466 20.6082 123.632 20.7797C123.798 20.9513 124.011 21.0704 124.244 21.1224H125.35V25.2344H113.466V21.1224H114.566C114.797 21.0683 115.007 20.9483 115.171 20.7769C115.335 20.6055 115.445 20.3901 115.489 20.157V1.87012H123.309ZM124.317 1.87012H130.458V10.6439H125.875L125.338 6.367H124.342L124.317 1.87012Z" fill="#919191"/>
<path d="M131.588 21.1223H132.419C132.623 21.0757 132.81 20.9725 132.958 20.8244C133.106 20.6763 133.21 20.4894 133.256 20.2852V12.8128C133.213 12.6078 133.111 12.42 132.962 12.2723C132.813 12.1247 132.625 12.0237 132.419 11.9819H131.484V7.60717H139.128C139.794 7.60717 140.527 8.01043 140.527 10.8454V21.1223H142.501V25.2342H131.588V21.1223ZM141.529 14.1814V9.64788C141.891 8.96375 142.434 8.39252 143.099 7.99694C143.764 7.60136 144.525 7.39673 145.299 7.40555C145.664 7.4094 146.026 7.47765 146.368 7.60717V13.8759H145.635C144.26 13.8699 142.888 13.972 141.529 14.1814Z" fill="#919191"/>
<path d="M147.602 21.1227H148.482C148.685 21.0807 148.87 20.9782 149.013 20.8287C149.156 20.6792 149.25 20.4898 149.283 20.2856V12.8132C149.243 12.6127 149.146 12.4278 149.004 12.2805C148.862 12.1332 148.681 12.0297 148.482 11.9823H147.511V7.60759H155.557C156.223 7.60759 156.59 8.21858 156.59 9.31225V20.3101C156.63 20.516 156.731 20.7054 156.879 20.8544C157.027 21.0033 157.215 21.1052 157.421 21.1471H158.258V25.2591H147.602V21.1227ZM149.539 3.60561C149.539 1.69932 150.926 0.43457 152.906 0.43457C154.885 0.43457 156.309 1.69932 156.309 3.60561C156.309 5.51189 154.91 6.70943 152.906 6.70943C150.902 6.70943 149.539 5.47523 149.539 3.60561Z" fill="#919191"/>
<path d="M167.221 20.2856C167.221 23.2978 165.486 25.2346 164.851 25.2346H159.963V6.97824C159.921 6.77293 159.82 6.58433 159.672 6.43562C159.525 6.28692 159.337 6.18458 159.132 6.14118H158.228V1.86426H166.201C166.812 1.86426 167.234 2.43248 167.234 3.33063L167.221 20.2856ZM168.223 21.1593H168.834C170.264 21.1593 171.572 20.2856 171.572 16.5524C171.572 13.2164 170.35 12.5138 168.865 12.5138H168.199V8.78066C169.381 7.78221 170.886 7.24797 172.433 7.27762C175.775 7.27762 178.946 9.24501 178.946 15.917C178.946 22.589 175.775 25.5645 171.468 25.5645C169.968 25.627 168.498 25.1404 167.331 24.1959L168.223 21.1593Z" fill="#919191"/>
<path d="M191.013 20.2549V23.8292C189.562 24.9763 187.754 25.5775 185.905 25.5277C183.565 25.5277 181.237 24.5563 181.237 21.3241V12.8131C181.195 12.6126 181.097 12.4283 180.954 12.2813C180.811 12.1343 180.63 12.0306 180.431 11.9821H179.734V7.60742H188.539V18.6052C188.539 19.9738 189.241 20.2732 190.714 20.2732L191.013 20.2549ZM192.009 11.9821H190.243V7.60742H199.323V20.2855C199.362 20.4871 199.458 20.6733 199.6 20.8217C199.742 20.9702 199.923 21.0746 200.123 21.1225H200.893V25.2345H193.414C192.748 25.2345 192.009 24.6968 192.009 21.9901V11.9821Z" fill="#919191"/>
<path d="M201.889 21.1231H202.72C202.924 21.0765 203.111 20.9733 203.259 20.8252C203.407 20.6771 203.51 20.4902 203.557 20.286V12.8136C203.513 12.6086 203.411 12.4208 203.262 12.2731C203.114 12.1255 202.925 12.0246 202.72 11.9827H201.791V7.60798H209.428C210.094 7.60798 210.834 8.01123 210.834 10.8462V21.1231H212.801V25.235H201.889V21.1231ZM211.836 12.7158V9.04991C213.317 7.85313 215.167 7.20554 217.072 7.21694C219.406 7.21694 221.612 8.18231 221.612 11.4206V20.286C221.652 20.492 221.752 20.6814 221.9 20.8303C222.048 20.9793 222.237 21.0812 222.442 21.1231H222.974V25.235H214.335V14.28C214.335 12.9786 213.724 12.7158 212.202 12.7158H211.836Z" fill="#919191"/>
<path d="M233.721 21.2079V25.5459C226.114 25.3504 223.64 22.045 223.64 16.5399C223.64 11.0349 227.049 7.52785 232.652 7.29567V11.5298C231.686 11.6642 230.88 12.8007 230.88 16.3383C230.88 20.0226 231.686 20.9941 233.721 21.2079ZM231.955 14.5726H235.157C235.12 12.3974 234.589 11.6642 233.654 11.5176V7.27734C239.293 7.44231 241.963 10.2468 241.963 16.2528C241.963 17.0837 241.896 17.7558 241.896 17.988H231.955V14.5726ZM234.723 25.5704V21.159C235.257 21.1475 235.781 21.0084 236.251 20.7533C236.721 20.4982 237.123 20.1346 237.424 19.6926H241.261V23.9268C239.235 24.9601 236.997 25.5081 234.723 25.5276V25.5704Z" fill="#919191"/>
</g>
<defs>
<clipPath id="clip0_979_357605">
<rect width="241.341" height="25.13" fill="white" transform="translate(0.622559 0.43457)"/>
</clipPath>
</defs>
</svg>
