<svg xmlns="http://www.w3.org/2000/svg" width="249.08" height="46.42" viewBox="0 0 249.08 46.42">
  <g id="Group_99" data-name="Group 99" transform="translate(-1586 -535)">
    <g id="Group_98" data-name="Group 98" transform="translate(1450.8 144.83)">
      <g id="Group_24" data-name="Group 24">
        <g id="Group_23" data-name="Group 23">
          <path id="Path_45" data-name="Path 45" d="M249.64,405.97a.354.354,0,0,0,.35.35h.66a.354.354,0,0,1,.35.35v21.67a.354.354,0,0,0,.35.35h6.18a.354.354,0,0,0,.35-.35V406.67a.354.354,0,0,1,.35-.35h2.94a.354.354,0,0,0,.35-.35v-4.54a.354.354,0,0,0-.35-.35H249.99a.354.354,0,0,0-.35.35v4.54Z" fill="#ed1c24"/>
        </g>
      </g>
      <g id="Group_26" data-name="Group 26">
        <g id="Group_25" data-name="Group 25">
          <path id="Path_46" data-name="Path 46" d="M339.41,406.22v0Z" fill="#ed1c24"/>
        </g>
      </g>
      <g id="Group_28" data-name="Group 28">
        <g id="Group_27" data-name="Group 27">
          <path id="Path_47" data-name="Path 47" d="M161.02,405.97a.354.354,0,0,0,.35.35h.66a.354.354,0,0,1,.35.35v21.67a.354.354,0,0,0,.35.35h6.18a.354.354,0,0,0,.35-.35V406.67a.354.354,0,0,1,.35-.35h2.94a.346.346,0,0,0,.34-.35v-4.54a.352.352,0,0,0-.34-.35H161.37a.354.354,0,0,0-.35.35v4.54Z"/>
        </g>
      </g>
      <g id="Group_30" data-name="Group 30">
        <g id="Group_29" data-name="Group 29">
          <path id="Path_48" data-name="Path 48" d="M262.9,405.97a.354.354,0,0,0,.35.35h.98a.354.354,0,0,1,.35.35v21.67a.352.352,0,0,0,.34.35h6.18a.354.354,0,0,0,.35-.35V406.67a.354.354,0,0,1,.35-.35h13.43a.354.354,0,0,0,.35-.35v-4.54a.354.354,0,0,0-.35-.35H263.25a.354.354,0,0,0-.35.35Z" fill="#ed1c24"/>
        </g>
      </g>
      <g id="Group_32" data-name="Group 32">
        <g id="Group_31" data-name="Group 31">
          <path id="Path_49" data-name="Path 49" d="M287.15,405.97a.354.354,0,0,0,.35.35h.66a.354.354,0,0,1,.35.35v21.67a.354.354,0,0,0,.35.35h6.18a.346.346,0,0,0,.34-.35V406.67a.354.354,0,0,1,.35-.35h2.94a.354.354,0,0,0,.35-.35v-4.54a.354.354,0,0,0-.35-.35H287.49a.354.354,0,0,0-.35.35v4.54Z" fill="#ed1c24"/>
        </g>
      </g>
      <g id="Group_34" data-name="Group 34">
        <g id="Group_33" data-name="Group 33">
          <path id="Path_50" data-name="Path 50" d="M223.5,405.84a.354.354,0,0,0,.35.35h.66a.348.348,0,0,1,.35.35v21.67a.354.354,0,0,0,.35.35h6.18a.354.354,0,0,0,.35-.35V406.54a.354.354,0,0,1,.35-.35h2.94a.354.354,0,0,0,.35-.35v-4.55a.354.354,0,0,0-.35-.35H223.85a.348.348,0,0,0-.35.35v4.55Z"/>
        </g>
      </g>
      <g id="Group_36" data-name="Group 36">
        <g id="Group_35" data-name="Group 35">
          <path id="Path_51" data-name="Path 51" d="M135.2,405.94a.354.354,0,0,0,.35.35H150.5c.19,0,.35.01.35.01v21.94a.354.354,0,0,0,.35.35h6.07a.354.354,0,0,0,.35-.35V406.63a.354.354,0,0,1,.35-.35h.95a.354.354,0,0,0,.35-.35v-4.51a.354.354,0,0,0-.35-.35H135.55a.354.354,0,0,0-.35.35v4.52Z"/>
        </g>
      </g>
      <g id="Group_38" data-name="Group 38">
        <g id="Group_37" data-name="Group 37">
          <path id="Path_52" data-name="Path 52" d="M209.21,407.87a7.966,7.966,0,0,0-1.87,1.34.485.485,0,0,1-.55.06l-3.68-1.62a.252.252,0,0,0-.33.26v1.22a.509.509,0,0,0,.33.45l.63.32a.743.743,0,0,1,.28.55v10.47a.354.354,0,0,0,.35.35l4.66-.01a.348.348,0,0,0,.35-.35v-9.35a1.857,1.857,0,0,1,.14-.66l.51-.7a.821.821,0,0,0,.28-.56v-1.7a.277.277,0,0,0-.34-.28A6.12,6.12,0,0,0,209.21,407.87Z"/>
        </g>
      </g>
      <g id="Group_40" data-name="Group 40">
        <g id="Group_39" data-name="Group 39">
          <path id="Path_53" data-name="Path 53" d="M193.14,405.87a.354.354,0,0,0,.35.35h19.54a.354.354,0,0,1,.35.35v.85a.273.273,0,0,1-.34.28l-.83-.13a.305.305,0,0,0-.35.31v1.62a.572.572,0,0,0,.32.48l.95.61a.927.927,0,0,1,.25.59v17.1a.354.354,0,0,0,.35.35l6.14.07a.346.346,0,0,0,.35-.34V406.58a.354.354,0,0,1,.35-.35h.94a.354.354,0,0,0,.35-.35V401.3a.354.354,0,0,0-.35-.35H193.5a.348.348,0,0,0-.35.35v4.57Z"/>
        </g>
      </g>
      <g id="Group_42" data-name="Group 42">
        <g id="Group_41" data-name="Group 41">
          <path id="Path_54" data-name="Path 54" d="M275.11,429.8a11.482,11.482,0,0,0-3.31,1.41,9.819,9.819,0,0,1-4.12,1.41c-.7,0-1.05-.56-1.05-1.69v-.95a.354.354,0,0,0-.35-.35h-.23a.407.407,0,0,0-.39.35,16.912,16.912,0,0,0-.11,1.69,6.32,6.32,0,0,0,.85,3.12,2.84,2.84,0,0,0,2.44,1.8,8.1,8.1,0,0,0,2.95-1.36,7.543,7.543,0,0,1,3.29-1.36,3.381,3.381,0,0,1,.94.18.233.233,0,0,0,.33-.23V430.9a.962.962,0,0,0-.26-.59A1.954,1.954,0,0,0,275.11,429.8Z" fill="#ed1c24"/>
        </g>
      </g>
      <g id="Group_44" data-name="Group 44">
        <g id="Group_43" data-name="Group 43">
          <path id="Path_55" data-name="Path 55" d="M277.97,426.47a.581.581,0,0,0-.32.49v4.26a1.652,1.652,0,0,1-.01.32c-.01-.02-.02.08-.02.27v.74a2.481,2.481,0,0,0,.01.36,1.934,1.934,0,0,1,.02.37v1.34a.247.247,0,0,0,.33.25l3.95-1.16a.518.518,0,0,0,.34-.44l.19-9.21c0-.19-.11-.24-.25-.12,0,0-.37.33-.72.6A22.915,22.915,0,0,1,277.97,426.47Z" fill="#ed1c24"/>
        </g>
      </g>
      <g id="Group_46" data-name="Group 46">
        <g id="Group_45" data-name="Group 45">
          <path id="Path_56" data-name="Path 56" d="M283.61,411.99a7.036,7.036,0,0,0-5.44-2.16c-.33,0-1.11.07-1.11.07a.528.528,0,0,0-.43.37l-1.54,6.46a.233.233,0,0,0,.27.3s.93-.11,1.65-.11q6.015,0,6.02,3.4,0,3.255-4.42,5.34a29.722,29.722,0,0,1-5.38,1.59.436.436,0,0,0-.34.41v.7a.321.321,0,0,0,.34.32,23.51,23.51,0,0,0,4.35-.79,13.708,13.708,0,0,0,3.84-2.09c.35-.27.67-.54.98-.83a9.671,9.671,0,0,0,3.2-7.33A8.051,8.051,0,0,0,283.61,411.99Z" fill="#ed1c24"/>
        </g>
      </g>
      <g id="Group_48" data-name="Group 48">
        <g id="Group_47" data-name="Group 47">
          <path id="Path_57" data-name="Path 57" d="M342.78,400.94H327.6a.576.576,0,0,0-.57.57v4.14a.576.576,0,0,0,.57.57h5.16a.576.576,0,0,1,.57.57v6.87a1.19,1.19,0,0,0,.48.88s3.8,2.49,4.99,2.22l.15-.04a.788.788,0,0,0,.46-.72v-9.79h12.04a.576.576,0,0,0,.57-.57V401.5a.57.57,0,0,0-.57-.57h-8.67Z" fill="#ed1c24"/>
        </g>
      </g>
      <g id="Group_50" data-name="Group 50">
        <g id="Group_49" data-name="Group 49">
          <rect id="Rectangle_1" data-name="Rectangle 1" width="1.54" height="0.01" transform="translate(339.41 406.21)" fill="#ed1c24"/>
        </g>
      </g>
      <g id="Group_52" data-name="Group 52">
        <g id="Group_51" data-name="Group 51">
          <path id="Path_58" data-name="Path 58" d="M307.67,413.97c0-1.06-.1,1.2,0,0Z" fill="#ed1c24"/>
        </g>
      </g>
      <g id="Group_54" data-name="Group 54">
        <g id="Group_53" data-name="Group 53">
          <path id="Path_59" data-name="Path 59" d="M171.68,417.93a.357.357,0,0,0,0,.49l10.06,10.06a.338.338,0,0,0,.49,0l4.18-4.19a.338.338,0,0,0,0-.49l-10.07-10.06a.356.356,0,0,0-.49,0Z"/>
        </g>
      </g>
      <g id="Group_56" data-name="Group 56">
        <g id="Group_55" data-name="Group 55">
          <path id="Path_60" data-name="Path 60" d="M264.89,390.52a.352.352,0,0,0-.34-.35H251.39a.354.354,0,0,0-.35.35v8.3a.354.354,0,0,0,.35.35h5.92a.339.339,0,0,0,.34-.35l-.08-4.09a.346.346,0,0,1,.34-.35h6.64a.344.344,0,0,0,.34-.34v-3.52Z" fill="#ed1c24"/>
        </g>
      </g>
      <g id="Group_58" data-name="Group 58">
        <g id="Group_57" data-name="Group 57">
          <path id="Path_61" data-name="Path 61" d="M315.98,390.52a.354.354,0,0,0-.35-.35H289.86a.354.354,0,0,0-.35.35v8.3a.354.354,0,0,0,.35.35h5.93a.339.339,0,0,0,.34-.35l-.08-4.09a.346.346,0,0,1,.34-.35l19.25.01a.352.352,0,0,0,.35-.34v-3.53Z" fill="#ed1c24"/>
        </g>
      </g>
      <g id="Group_60" data-name="Group 60">
        <g id="Group_59" data-name="Group 59">
          <path id="Path_62" data-name="Path 62" d="M318.81,390.52a.354.354,0,0,1,.35-.35h20.05a.354.354,0,0,1,.35.35v8.3a.354.354,0,0,1-.35.35h-5.92a.346.346,0,0,1-.34-.35l.08-4.09a.346.346,0,0,0-.34-.35l-13.53.01a.352.352,0,0,1-.35-.34Z" fill="#ed1c24"/>
        </g>
      </g>
      <g id="Group_62" data-name="Group 62">
        <g id="Group_61" data-name="Group 61">
          <path id="Path_63" data-name="Path 63" d="M267.79,390.52a.354.354,0,0,1,.35-.35h12.19a.354.354,0,0,1,.35.35v8.3a.354.354,0,0,1-.35.35h-5.92a.339.339,0,0,1-.34-.35l.08-4.09a.346.346,0,0,0-.34-.35h-5.67a.352.352,0,0,1-.35-.34v-3.52Z" fill="#ed1c24"/>
        </g>
      </g>
      <g id="Group_64" data-name="Group 64">
        <g id="Group_63" data-name="Group 63">
          <path id="Path_64" data-name="Path 64" d="M324.88,405.97a.354.354,0,0,1-.35.35h-.98a.354.354,0,0,0-.35.35v21.67a.354.354,0,0,1-.35.35h-6.18a.354.354,0,0,1-.35-.35V406.67a.354.354,0,0,0-.35-.35H301.18a.354.354,0,0,1-.35-.35v-4.54a.354.354,0,0,1,.35-.35h23.34a.354.354,0,0,1,.35.35v4.54Z" fill="#ed1c24"/>
        </g>
      </g>
      <g id="Group_66" data-name="Group 66">
        <g id="Group_65" data-name="Group 65">
          <path id="Path_65" data-name="Path 65" d="M384.28,405.97a.354.354,0,0,1-.35.35h-4.81a.354.354,0,0,0-.35.35v21.67a.354.354,0,0,1-.35.35h-6.18a.354.354,0,0,1-.35-.35V406.67a.354.354,0,0,0-.35-.35H354.45a.354.354,0,0,1-.35-.35v-4.54a.354.354,0,0,1,.35-.35h29.47a.354.354,0,0,1,.35.35v4.54Z" fill="#ed1c24"/>
        </g>
      </g>
      <g id="Group_68" data-name="Group 68">
        <g id="Group_67" data-name="Group 67">
          <path id="Path_66" data-name="Path 66" d="M149.48,407.49l.04,3.17s.31,1.31-.66,1.59l-6.13,1.52s-.58.17-.41,1.1c0,0-1.04,8.96,6.89,12.27a.706.706,0,0,1-.07,1.24s-12.68.69-13.58-16.96a.816.816,0,0,1,.76-.9L148.87,407A.7.7,0,0,1,149.48,407.49Z"/>
        </g>
      </g>
      <g id="Group_70" data-name="Group 70">
        <g id="Group_69" data-name="Group 69">
          <path id="Path_67" data-name="Path 67" d="M314.67,407.49l.04,3.17s.31,1.31-.66,1.59l-6.14,1.52s-.58.17-.41,1.1c0,0-1.04,8.96,6.9,12.27a.706.706,0,0,1-.07,1.24s-12.69.69-13.58-16.96a.816.816,0,0,1,.76-.9L314.06,407A.7.7,0,0,1,314.67,407.49Z" fill="#ed1c24"/>
        </g>
      </g>
      <g id="Group_72" data-name="Group 72">
        <g id="Group_71" data-name="Group 71">
          <path id="Path_68" data-name="Path 68" d="M369.77,415.08s.48.52.76-.21c0,0,.55-.9-.55-1.86,0,0-8.96-9.44-14.62-1.03,0,0-6.93,13.13,6.34,15.2l4.27-.04a.848.848,0,0,0,.76-.62l-.04-.79a.753.753,0,0,0-.79-.59s-5.93,1.45-5.44-6.27C360.47,418.87,361.16,407.36,369.77,415.08Z" fill="#ed1c24"/>
        </g>
      </g>
      <g id="Group_74" data-name="Group 74">
        <g id="Group_73" data-name="Group 73">
          <path id="Path_69" data-name="Path 69" d="M183.46,400.58"/>
        </g>
      </g>
      <g id="Group_77" data-name="Group 77">
        <g id="Group_76" data-name="Group 76">
          <g id="Group_75" data-name="Group 75">
            <path id="Path_70" data-name="Path 70" d="M183.46,410.77v0Z" fill="none"/>
          </g>
        </g>
      </g>
      <g id="Group_82" data-name="Group 82">
        <g id="Group_79" data-name="Group 79">
          <g id="Group_78" data-name="Group 78">
            <path id="Path_71" data-name="Path 71" d="M182.01,401.35a1.544,1.544,0,0,1-.09-.56v1.13Z" fill="none"/>
          </g>
        </g>
        <g id="Group_81" data-name="Group 81">
          <g id="Group_80" data-name="Group 80">
            <path id="Path_72" data-name="Path 72" d="M181.92,412.36v-1.59a.483.483,0,0,0-.33-.42h0a2.181,2.181,0,0,1-1.34-2.33v-3.97a1.7,1.7,0,0,1,.84-1.42,5.669,5.669,0,0,1,.57-.32c.01-.01.01-.01.02-.01a.439.439,0,0,0,.23-.39v-1.13a.285.285,0,0,0-.3-.3,12.088,12.088,0,0,0-4.05,1.09,5.358,5.358,0,0,0-3.26,5.11q0,3.135,3.26,4.75a11.811,11.811,0,0,0,4.05,1.1C181.89,412.52,181.92,412.36,181.92,412.36Z"/>
          </g>
        </g>
      </g>
      <g id="Group_87" data-name="Group 87">
        <g id="Group_84" data-name="Group 84">
          <g id="Group_83" data-name="Group 83">
            <path id="Path_73" data-name="Path 73" d="M182.78,401.35a1.544,1.544,0,0,0,.09-.56v1.13Z" fill="none"/>
          </g>
        </g>
        <g id="Group_86" data-name="Group 86">
          <g id="Group_85" data-name="Group 85">
            <path id="Path_74" data-name="Path 74" d="M182.86,412.36v-1.59a.483.483,0,0,1,.33-.42h-.01a2.181,2.181,0,0,0,1.34-2.33v-3.97a1.7,1.7,0,0,0-.84-1.42,4.086,4.086,0,0,0-.57-.32c-.01-.01-.01-.01-.02-.01a.439.439,0,0,1-.23-.39v-1.13a.285.285,0,0,1,.3-.3,12.088,12.088,0,0,1,4.05,1.09,5.367,5.367,0,0,1,3.27,5.11q0,3.135-3.27,4.75a11.811,11.811,0,0,1-4.05,1.1C182.9,412.52,182.86,412.36,182.86,412.36Z"/>
          </g>
        </g>
      </g>
      <g id="Group_90" data-name="Group 90">
        <g id="Group_89" data-name="Group 89">
          <g id="Group_88" data-name="Group 88">
            <path id="Path_75" data-name="Path 75" d="M201.43,428.26l-1-1.66a2.9,2.9,0,0,1-.26-1.08V412.1a6.008,6.008,0,0,1,.13-1.12,1.871,1.871,0,0,1,.58-.91l.12-.1a1.034,1.034,0,0,0,.24-.73v-1.11a.471.471,0,0,0-.56-.48s-.64.11-1.38.3c-2.98.87-4.28,4.74-4.28,4.74a4.155,4.155,0,0,0-.18,1.11v10.66a1.729,1.729,0,0,0,.37,1l2.84,2.93.15.14a1.245,1.245,0,0,0,.49.15h2.56C201.54,428.7,201.63,428.5,201.43,428.26Z"/>
          </g>
        </g>
      </g>
      <g id="Group_97" data-name="Group 97">
        <g id="Group_92" data-name="Group 92">
          <g id="Group_91" data-name="Group 91">
            <path id="Path_76" data-name="Path 76" d="M340.95,415.55v-.29A1.27,1.27,0,0,0,340.95,415.55Z" fill="#ed1c24"/>
          </g>
        </g>
        <g id="Group_94" data-name="Group 94">
          <g id="Group_93" data-name="Group 93">
            <path id="Path_77" data-name="Path 77" d="M340.95,409.53v0Z" fill="#ed1c24"/>
          </g>
        </g>
        <g id="Group_96" data-name="Group 96">
          <g id="Group_95" data-name="Group 95">
            <path id="Path_78" data-name="Path 78" d="M346.6,406.78a9.235,9.235,0,0,0-3.72,1.34c-.54.29-1,.52-1.39.72h0c-.43.22-.51.47-.52.61v6.12c.03.16.14.29.48.11.54-.28,1.14-.62,1.82-1.04q3.48-2.145,4.65-2.14a2.012,2.012,0,0,1,1.75,1.21,4.344,4.344,0,0,1,.59,2.2,6.18,6.18,0,0,1-2.58,5.16,9.348,9.348,0,0,1-5.7,1.75,11.265,11.265,0,0,1-6.72-2.05c-2.11-1.49-4.49-3.56-5.39-5.8a16.674,16.674,0,0,1-1.13-6.71h-.01c.01-.3-.24-.3-.24-.3l-.35.02a.266.266,0,0,0-.22.28c.08,13.75,5.5,20.63,12.98,20.63q5.94,0,8.5-2.36t2.55-8.2Q351.95,406.78,346.6,406.78Z" fill="#ed1c24"/>
          </g>
        </g>
      </g>
    </g>
  </g>
</svg>
